<svg width="200" height="54" viewBox="0 0 200 54" fill="none" xmlns="http://www.w3.org/2000/svg">
<g clip-path="url(#clip0_3060_1305)">
<path d="M44.3795 14.0619C43.2087 11.2389 41.5403 8.74677 39.3791 6.58322C37.2155 4.41966 34.7234 2.75362 31.9004 1.58275C29.9682 0.782123 27.9828 0.254541 25.9396 0.00231934V9.73714C28.441 10.2532 30.6554 11.468 32.576 13.3886C35.2024 16.0149 36.5144 19.185 36.5144 22.8943C36.5144 26.6059 35.2024 29.7737 32.576 32.4C29.9497 35.0264 26.7819 36.3384 23.0703 36.3384C21.358 36.3384 19.7636 36.0561 18.2827 35.4961V45.4623V53.1794V53.1817H27.7514V45.4855C29.1629 45.1939 30.5444 44.7681 31.9004 44.2059C34.7234 43.035 37.2178 41.3666 39.3791 39.2054C41.5426 37.0442 43.2087 34.5497 44.3795 31.7267C45.5504 28.9037 46.1358 25.9603 46.1358 22.8966C46.1358 19.8329 45.5504 16.885 44.3795 14.0619Z" fill="black"/>
<path d="M12.5694 31.3009C10.6072 28.9036 9.62144 26.1014 9.62144 22.892C9.62144 19.1804 10.9334 16.0126 13.5598 13.3862C15.4804 11.4657 17.6948 10.2508 20.1962 9.73482V0C18.153 0.252221 16.1653 0.779804 14.2355 1.58043C11.4124 2.7513 8.91799 4.41966 6.75676 6.5809C4.59321 8.74445 2.92716 11.2366 1.75629 14.0596C0.585431 16.8849 0 19.8283 0 22.892C0 25.9557 0.585431 28.899 1.75629 31.722C2.92716 34.5451 4.59552 37.0395 6.75676 39.2008C8.48297 40.927 10.4221 42.3315 12.5694 43.426V31.3009Z" fill="black"/>
<path d="M84.2192 11.9238C83.0576 11.9238 82.0649 11.5096 81.2388 10.6835C80.4127 9.85744 79.9985 8.86244 79.9985 7.70314C79.9985 6.54385 80.4104 5.54885 81.2388 4.72276C82.0649 3.89668 83.0599 3.48248 84.2192 3.48248C85.3808 3.48248 86.3735 3.89668 87.1996 4.72276C88.0257 5.54885 88.4399 6.54385 88.4399 7.70314C88.4399 8.86244 88.0257 9.85744 87.1996 10.6835C86.3712 11.5096 85.3785 11.9238 84.2192 11.9238ZM87.5953 42.3107H80.8431V15.2999H87.5953V42.3107Z" fill="black"/>
<path d="M73.9034 32.2866L79.679 35.7414C79.1167 36.6901 78.4387 37.5601 77.6473 38.3515C76.3816 39.6173 74.9215 40.5937 73.2693 41.2787C71.6172 41.9636 69.8933 42.3084 68.1 42.3084C66.3066 42.3084 64.5827 41.9659 62.9306 41.2787C61.2784 40.5937 59.8183 39.6173 58.5526 38.3515C57.2868 37.0858 56.3103 35.6257 55.6254 33.9735C54.9405 32.3213 54.5957 30.5974 54.5957 28.8041C54.5957 27.0108 54.9382 25.2869 55.6254 23.6347C56.3103 21.9826 57.2868 20.5225 58.5526 19.2567C59.8183 17.991 61.2784 17.0145 62.9306 16.3296C64.5827 15.6447 66.3066 15.3022 68.1 15.3022C69.8933 15.3022 71.6172 15.6447 73.2693 16.3296C74.9215 17.0145 76.3816 17.991 77.6473 19.2567C78.4387 20.0481 79.1144 20.9182 79.679 21.8692L73.9034 25.3239C73.6211 24.8681 73.2786 24.4354 72.8737 24.0304C71.5547 22.7115 69.9627 22.052 68.1 22.052C66.2349 22.052 64.6452 22.7115 63.3263 24.0304C62.0073 25.3494 61.3478 26.9414 61.3478 28.8041C61.3478 30.6692 62.0073 32.2589 63.3263 33.5778C64.6452 34.8968 66.2372 35.5563 68.1 35.5563C69.9627 35.5563 71.5547 34.8968 72.8737 33.5778C73.2786 33.1752 73.6211 32.7448 73.9034 32.2866Z" fill="black"/>
<path d="M108.67 32.2866L114.446 35.7414C113.884 36.6901 113.206 37.5601 112.414 38.3515C111.149 39.6173 109.689 40.5937 108.036 41.2787C106.384 41.9636 104.66 42.3084 102.867 42.3084C101.074 42.3084 99.3498 41.9659 97.6977 41.2787C96.0455 40.5937 94.5854 39.6173 93.3197 38.3515C92.0539 37.0858 91.0774 35.6257 90.3925 33.9735C89.7076 32.3213 89.3628 30.5974 89.3628 28.8041C89.3628 27.0108 89.7053 25.2869 90.3925 23.6347C91.0774 21.9826 92.0539 20.5225 93.3197 19.2567C94.5854 17.991 96.0455 17.0145 97.6977 16.3296C99.3498 15.6447 101.074 15.3022 102.867 15.3022C104.66 15.3022 106.384 15.6447 108.036 16.3296C109.689 17.0145 111.149 17.991 112.414 19.2567C113.206 20.0481 113.881 20.9182 114.446 21.8692L108.67 25.3239C108.388 24.8681 108.046 24.4354 107.641 24.0304C106.322 22.7115 104.73 22.052 102.867 22.052C101.002 22.052 99.4123 22.7115 98.0934 24.0304C96.7744 25.3494 96.1149 26.9414 96.1149 28.8041C96.1149 30.6692 96.7744 32.2589 98.0934 33.5778C99.4123 34.8968 101.004 35.5563 102.867 35.5563C104.73 35.5563 106.322 34.8968 107.641 33.5778C108.046 33.1752 108.388 32.7448 108.67 32.2866Z" fill="black"/>
<path d="M114.948 28.8041V8.54773H121.7V28.8041C121.7 30.6692 122.36 32.2589 123.679 33.5778C124.998 34.8968 126.59 35.5562 128.452 35.5562V42.3084C126.659 42.3084 124.935 41.9659 123.283 41.2787C121.631 40.5937 120.171 39.6172 118.905 38.3515C117.639 37.0858 116.663 35.6257 115.978 33.9735C115.291 32.3213 114.948 30.5974 114.948 28.8041Z" fill="black"/>
<path d="M172.989 28.7995C172.989 27.0062 173.332 25.2823 174.019 23.6301C174.704 21.9779 175.68 20.5178 176.946 19.2521C178.212 17.9864 179.672 17.0099 181.324 16.3249C182.976 15.64 184.7 15.2975 186.494 15.2975C188.287 15.2975 190.011 15.64 191.663 16.3249C193.315 17.0099 194.775 17.9864 196.041 19.2521C197.307 20.5178 198.283 21.9779 198.968 23.6301C199.653 25.2823 199.998 27.0062 199.998 28.7995C199.998 30.5928 199.655 32.3167 198.968 33.9689C198.283 35.621 197.307 37.0811 196.041 38.3469C194.775 39.6126 193.315 40.5891 191.663 41.274C190.011 41.959 188.287 42.3037 186.494 42.3037C184.7 42.3037 182.976 41.9613 181.324 41.274C180.778 41.045 180.25 40.7812 179.741 40.4827V49.5441H172.989V28.7995ZM186.494 35.5516C188.356 35.5516 189.948 34.8921 191.267 33.5732C192.586 32.2542 193.246 30.6622 193.246 28.7995C193.246 26.9368 192.586 25.3448 191.267 24.0258C189.948 22.7068 188.356 22.0474 186.494 22.0474C184.628 22.0474 183.039 22.7068 181.72 24.0258C180.401 25.3448 179.741 26.9368 179.741 28.7995C179.741 30.6645 180.401 32.2542 181.72 33.5732C183.039 34.8921 184.631 35.5516 186.494 35.5516Z" fill="black"/>
<path d="M140.589 42.3037C138.796 42.3037 137.072 41.9613 135.42 41.274C133.768 40.5891 132.308 39.6126 131.042 38.3469C129.776 37.0811 128.8 35.621 128.115 33.9689C127.43 32.3167 127.085 30.5928 127.085 28.7995C127.085 27.0062 127.427 25.2823 128.115 23.6301C128.8 21.9779 129.776 20.5178 131.042 19.2521C132.308 17.9864 133.768 17.0099 135.42 16.3249C137.072 15.64 138.796 15.2975 140.589 15.2975C142.383 15.2975 144.106 15.64 145.759 16.3249C147.411 17.0099 148.871 17.9864 150.137 19.2521C151.402 20.5178 152.379 21.9779 153.064 23.6301C153.749 25.2823 154.093 27.0062 154.093 28.7995C154.093 30.5928 153.751 32.3167 153.064 33.9689C152.379 35.621 151.402 37.0811 150.137 38.3469C148.871 39.6126 147.411 40.5891 145.759 41.274C144.104 41.9613 142.383 42.3037 140.589 42.3037ZM140.589 35.5516C142.452 35.5516 144.044 34.8921 145.363 33.5732C146.682 32.2542 147.341 30.6622 147.341 28.7995C147.341 26.9368 146.682 25.3448 145.363 24.0258C144.044 22.7068 142.452 22.0474 140.589 22.0474C138.724 22.0474 137.134 22.7068 135.816 24.0258C134.497 25.3448 133.837 26.9368 133.837 28.7995C133.837 30.6645 134.497 32.2542 135.816 33.5732C137.132 34.8921 138.724 35.5516 140.589 35.5516Z" fill="black"/>
<path d="M156.1 25.4234C156.34 26.5272 156.465 27.6541 156.465 28.7995C156.465 29.9449 156.34 31.0718 156.1 32.1755H170.615V28.7995C170.615 27.6541 170.74 26.5272 170.981 25.4234H156.1Z" fill="black"/>
<path d="M27.8417 27.6657C26.5228 28.9846 24.9308 29.6441 23.068 29.6441C21.203 29.6441 19.6133 28.9846 18.2944 27.6657C16.9754 26.3467 16.3159 24.7547 16.3159 22.892C16.3159 21.0292 16.9754 19.4372 18.2944 18.1183C19.6133 16.7993 21.2053 16.1398 23.068 16.1398C24.9308 16.1398 26.5228 16.7993 27.8417 18.1183C29.1607 19.4372 29.8202 21.0292 29.8202 22.892C29.8202 24.757 29.1607 26.3467 27.8417 27.6657Z" fill="black"/>
</g>
<defs>
<clipPath id="clip0_3060_1305">
<rect width="200" height="53.1794" fill="white"/>
</clipPath>
</defs>
</svg>
